<svg xmlns="http://www.w3.org/2000/svg" width="500" height="500" style="width:100%;height:100%;content-visibility:visible"><defs><clipPath id="a"><path d="M0 0h500v500H0z"/></clipPath></defs><g clip-path="url(#a)"><g display="block"><path stroke-linecap="round" stroke-linejoin="round" stroke="#121331" stroke-width="12.04" d="M387.712 410.12H112.288c-12.375 0-22.407-10.033-22.407-22.408V112.288c0-12.375 10.032-22.407 22.407-22.407h275.424c12.375 0 22.407 10.032 22.407 22.407v275.424c0 12.375-10.032 22.408-22.407 22.408zm20.407-268.866H89.881" fill="none"/><path stroke-linecap="round" stroke-linejoin="round" stroke="#08A88A" stroke-width="15.05" d="M177.864 115.567H178m-56.432 0h.136m28.012 0h.136" fill="none"/></g><g display="block"><path stroke-linecap="round" stroke-linejoin="round" stroke="#08A88A" stroke-width="12.04" d="M170.301 303.465h-30.24v-30.24h30.24v30.24zm0 73.987h-30.24v-30.24h30.24v30.24z" fill="none"/><path stroke-linecap="round" stroke-linejoin="round" stroke="#121331" stroke-width="12.04" d="M238.989 288.345h-34.656M350 288.345h-76M350 362.332H204.334M359.939 184.001H140.061M207.047 220.002h-66.986" fill="none"/></g></g></svg>